<?xml version="1.0" encoding="UTF-8"?>
<svg width="169px" height="169px" viewBox="0 0 169 169" version="1.1" xmlns="http://www.w3.org/2000/svg" xmlns:xlink="http://www.w3.org/1999/xlink">
    <!-- Generator: Sketch 45.2 (43514) - http://www.bohemiancoding.com/sketch -->
    <title>JOA Graphic</title>
    <desc>Created with Sketch.</desc>
    <defs>
        <circle id="path-1" cx="84.1358906" cy="84.1358906" r="84.1358906"></circle>
        <circle id="path-3" cx="84.1358906" cy="84.1358906" r="84.1358906"></circle>
        <polygon id="path-5" points="0 34.8670503 145.137238 34.8670503 145.137238 25.7474583 0 25.7474583"></polygon>
        <filter x="-0.7%" y="-11.0%" width="102.8%" height="143.9%" filterUnits="objectBoundingBox" id="filter-6">
            <feOffset dx="1" dy="1" in="SourceAlpha" result="shadowOffsetOuter1"></feOffset>
            <feGaussianBlur stdDeviation="0.5" in="shadowOffsetOuter1" result="shadowBlurOuter1"></feGaussianBlur>
            <feColorMatrix values="0 0 0 0 0.737254902   0 0 0 0 0.737254902   0 0 0 0 0.737254902  0 0 0 0.5 0" type="matrix" in="shadowBlurOuter1"></feColorMatrix>
        </filter>
        <polygon id="path-7" points="6.13437339 71.0001347 84.1798691 71.0001347 84.1798691 39.9331967 6.13437339 39.9331967"></polygon>
        <filter x="-1.3%" y="-3.2%" width="105.1%" height="112.9%" filterUnits="objectBoundingBox" id="filter-8">
            <feOffset dx="1" dy="1" in="SourceAlpha" result="shadowOffsetOuter1"></feOffset>
            <feGaussianBlur stdDeviation="0.5" in="shadowOffsetOuter1" result="shadowBlurOuter1"></feGaussianBlur>
            <feColorMatrix values="0 0 0 0 0.737254902   0 0 0 0 0.737254902   0 0 0 0 0.737254902  0 0 0 0.5 0" type="matrix" in="shadowBlurOuter1"></feColorMatrix>
        </filter>
        <polygon id="path-9" points="6.13437339 105.889383 84.1798691 105.889383 84.1798691 74.8224454 6.13437339 74.8224454"></polygon>
        <filter x="-1.3%" y="-3.2%" width="105.1%" height="112.9%" filterUnits="objectBoundingBox" id="filter-10">
            <feOffset dx="1" dy="1" in="SourceAlpha" result="shadowOffsetOuter1"></feOffset>
            <feGaussianBlur stdDeviation="0.5" in="shadowOffsetOuter1" result="shadowBlurOuter1"></feGaussianBlur>
            <feColorMatrix values="0 0 0 0 0.737254902   0 0 0 0 0.737254902   0 0 0 0 0.737254902  0 0 0 0.5 0" type="matrix" in="shadowBlurOuter1"></feColorMatrix>
        </filter>
    </defs>
    <g id="Page-1" stroke="none" stroke-width="1" fill="none" fill-rule="evenodd">
        <g id="ATP-landing-page" transform="translate(-278.000000, -204.000000)">
            <g id="JOA-Graphic" transform="translate(278.000000, 204.000000)">
                <mask id="mask-2" fill="white">
                    <use xlink:href="#path-1"></use>
                </mask>
                <use id="Mask" fill="#FAD980" xlink:href="#path-1"></use>
                <mask id="mask-4" fill="white">
                    <use xlink:href="#path-3"></use>
                </mask>
                <use id="Mask" fill="#FAD980" xlink:href="#path-3"></use>
                <g id="Group-2" mask="url(#mask-4)">
                    <g transform="translate(11.942080, 29.647334)">
                        <polygon id="Fill-4" fill="#F1F1F1" fill-rule="evenodd" points="0 112.337641 145.137238 112.337641 145.137238 0.0597697047 0 0.0597697047"></polygon>
                        <polygon id="Fill-14" fill="#D1D2D1" fill-rule="evenodd" points="53.2923688 15.29388 135.375002 15.29388 135.375002 8.87793145 53.2923688 8.87793145"></polygon>
                        <polygon id="Fill-4" fill="#046B99" fill-rule="evenodd" points="0 26.2486445 145.137238 26.2486445 145.137238 0.0597697047 0 0.0597697047"></polygon>
                        <g id="Fill-4" fill="none">
                            <use fill="black" fill-opacity="1" filter="url(#filter-6)" xlink:href="#path-5"></use>
                            <use fill="#FFFFFF" fill-rule="evenodd" xlink:href="#path-5"></use>
                        </g>
                        <g id="Fill-4" fill="none">
                            <use fill="black" fill-opacity="1" filter="url(#filter-8)" xlink:href="#path-7"></use>
                            <use fill="#FFFFFF" fill-rule="evenodd" xlink:href="#path-7"></use>
                        </g>
                        <polygon id="Fill-4" fill="#F1F1F1" fill-rule="evenodd" points="5.36757672 10.8760669 83.9964893 10.8760669 83.9964893 7.34433811 5.36757672 7.34433811"></polygon>
                        <polygon id="Fill-4" fill="#F1F1F1" fill-rule="evenodd" points="5.36757672 19.1639674 56.9590612 19.1639674 56.9590612 15.6322386 5.36757672 15.6322386"></polygon>
                        <polygon id="Fill-4" fill="#D6D7D9" fill-rule="evenodd" points="8.05136508 31.4596281 17.665331 31.4596281 17.665331 28.9329127 8.05136508 28.9329127"></polygon>
                        <polygon id="Fill-4" fill="#D6D7D9" fill-rule="evenodd" points="11.8853484 47.0623735 76.4567115 47.0623735 76.4567115 44.5339768 11.8853484 44.5339768"></polygon>
                        <polygon id="Fill-4" fill="#D6D7D9" fill-rule="evenodd" points="11.8853484 53.1950657 56.2000507 53.1950657 56.2000507 50.6683502 11.8853484 50.6683502"></polygon>
                        <polygon id="Fill-4" fill="#D6D7D9" fill-rule="evenodd" points="11.8853484 59.7128374 67.0843636 59.7128374 67.0843636 57.1861219 11.8853484 57.1861219"></polygon>
                        <polygon id="Fill-4" fill="#D6D7D9" fill-rule="evenodd" points="11.8853484 65.9654785 58.5324035 65.9654785 58.5324035 63.438763 11.8853484 63.438763"></polygon>
                        <g id="Fill-4" fill="none">
                            <use fill="black" fill-opacity="1" filter="url(#filter-10)" xlink:href="#path-9"></use>
                            <use fill="#FFFFFF" fill-rule="evenodd" xlink:href="#path-9"></use>
                        </g>
                        <polygon id="Fill-4" fill="#FFFFFF" fill-rule="evenodd" points="88.5650158 101.223814 140.1565 101.223814 140.1565 77.1228354 88.5650158 77.1228354"></polygon>
                        <polygon id="Fill-4" fill="#D6D7D9" fill-rule="evenodd" points="11.8853484 81.9499409 76.4137746 81.9499409 76.4137746 79.4232255 11.8853484 79.4232255"></polygon>
                        <polygon id="Fill-4" fill="#D6D7D9" fill-rule="evenodd" points="11.8853484 88.4677127 56.2000507 88.4677127 56.2000507 85.9409972 11.8853484 85.9409972"></polygon>
                        <polygon id="Fill-4" fill="#D6D7D9" fill-rule="evenodd" points="11.8853484 94.7203537 67.0843636 94.7203537 67.0843636 92.1936383 11.8853484 92.1936383"></polygon>
                        <polygon id="Fill-4" fill="#D6D7D9" fill-rule="evenodd" points="11.8853484 100.736459 58.5324035 100.736459 58.5324035 98.209744 11.8853484 98.209744"></polygon>
                        <polygon id="Fill-4" fill="#D6D7D9" fill-rule="evenodd" points="30.2884686 31.4596281 39.9024346 31.4596281 39.9024346 28.9329127 30.2884686 28.9329127"></polygon>
                        <polygon id="Fill-4" fill="#D6D7D9" fill-rule="evenodd" points="54.0591655 31.4596281 63.6731315 31.4596281 63.6731315 28.9329127 54.0591655 28.9329127"></polygon>
                        <polygon id="Fill-4" fill="#D6D7D9" fill-rule="evenodd" points="77.4464641 31.4596281 87.06043 31.4596281 87.06043 28.9329127 77.4464641 28.9329127"></polygon>
                        <polygon id="Fill-4" fill="#D6D7D9" fill-rule="evenodd" points="101.217161 31.4596281 110.831127 31.4596281 110.831127 28.9329127 101.217161 28.9329127"></polygon>
                        <polygon id="Fill-4" fill="#DCE4EF" fill-rule="evenodd" points="88.5650158 73.3635862 140.1565 73.3635862 140.1565 39.9331967 88.5650158 39.9331967"></polygon>
                        <polygon id="Fill-4" fill="#FDB81E" fill-rule="evenodd" points="6.52165832 34.1730594 18.7625053 34.1730594 18.7625053 34.9505103 6.52165832 34.9505103"></polygon>
                        <circle id="Oval-3" fill="#02BFE7" fill-rule="evenodd" cx="95.6817049" cy="46.2830891" r="2.89930732"></circle>
                        <polygon id="Fill-4" fill="#AEB0B5" fill-rule="evenodd" points="101.600559 47.8274889 131.143694 47.8274889 131.143694 45.3007735 101.600559 45.3007735"></polygon>
                        <circle id="Oval-3" fill="#02BFE7" fill-rule="evenodd" cx="95.6817049" cy="46.2830891" r="2.89930732"></circle>
                        <polygon id="Fill-4" fill="#AEB0B5" fill-rule="evenodd" points="101.600559 47.8274889 131.143694 47.8274889 131.143694 45.3007735 101.600559 45.3007735"></polygon>
                        <circle id="Oval-3" fill="#205493" fill-rule="evenodd" cx="95.6817049" cy="55.8680475" r="2.89930732"></circle>
                        <polygon id="Fill-4" fill="#AEB0B5" fill-rule="evenodd" points="101.600559 57.029049 131.143694 57.029049 131.143694 54.5023336 101.600559 54.5023336"></polygon>
                        <circle id="Oval-3" fill="#2E8540" fill-rule="evenodd" cx="95.6817049" cy="65.0696076" r="2.89930732"></circle>
                        <polygon id="Fill-4" fill="#AEB0B5" fill-rule="evenodd" points="101.600559 66.6140075 131.143694 66.6140075 131.143694 64.087292 101.600559 64.087292"></polygon>
                        <polygon id="Fill-4" fill="#D6D7D9" fill-rule="evenodd" points="92.7823975 93.0684927 107.553965 93.0684927 107.553965 90.5417772 92.7823975 90.5417772"></polygon>
                        <polygon id="Fill-4" fill="#D6D7D9" fill-rule="evenodd" points="92.7823975 98.0526711 102.396363 98.0526711 102.396363 95.5259556 92.7823975 95.5259556"></polygon>
                        <g id="Button-/-big" stroke-width="1" fill="none" fill-rule="evenodd" transform="translate(92.782398, 81.340217)">
                            <rect id="Rectangle-23" fill="#0872B9" x="0" y="0" width="43.9756418" height="6.4159485" rx="2"></rect>
                        </g>
                    </g>
                </g>
            </g>
        </g>
    </g>
</svg>